# xmcd
#
# Track frame offsets:
#	150
#	15765
#	32350
#	46642
#	71341
#	87974
#	99096
#	118899
#	135543
#	153997
#	170424
#	192931
#	210893
#
# Disc length: 3005 seconds
#
# Revision: 1
# Processed by: cddbd v1.5.2PL0 Copyright (c) Steve Scherf et al.
# Submitted via: audiograbber 1.83.01
#
DISCID=8d0bbb0d
DTITLE=Nashville - Rodeo Man
DYEAR=2015
DGENRE=Country
TTITLE0=Rodeo Man- Radioversion
TTITLE1=Highway 41
TTITLE2=She is mine
TTITLE3=Hello State Patrol
TTITLE4=I will always be your Wife
TTITLE5=Austro Americans
TTITLE6=Jonny Blame
TTITLE7=Little wet T-Shirt
TTITLE8=Nashville BBQ
TTITLE9=Endless Sky
TTITLE10=Rodeo Man- Albumversion
TTITLE11=No matter 2012
TTITLE12=Back in Town 2012
EXTD=
EXTT0=
EXTT1=
EXTT2=
EXTT3=
EXTT4=
EXTT5=
EXTT6=
EXTT7=
EXTT8=
EXTT9=
EXTT10=
EXTT11=
EXTT12=
PLAYORDER=
